<?xml version="1.0" encoding="utf-8"?>
<!-- Generator: Adobe Illustrator 22.0.1, SVG Export Plug-In . SVG Version: 6.00 Build 0)  -->
<svg version="1.1" id="グループ_2" xmlns="http://www.w3.org/2000/svg" xmlns:xlink="http://www.w3.org/1999/xlink" x="0px"
	 y="0px" viewBox="0 0 259.5 47.2" style="enable-background:new 0 0 259.5 47.2;" xml:space="preserve">
<style type="text/css">
	.st0{fill:#111111;}
	.st1{font-family:'DINNextW1G-Bold';}
	.st2{font-size:30.32px;}
	.st3{fill:#B2E9FF;}
	.st4{fill:#FFFFFF;}
	.st5{fill:#B0DEF4;}
</style>
<title>アートボード 1</title>
<text transform="matrix(1 0 0 1 93.62 30.7502)" class="st0 st1 st2">winterline</text>
<path class="st3" d="M12,0h47.9c6.6,0,12,5.4,12,12v23.2c0,6.6-5.4,12-12,12H12c-6.6,0-12-5.4-12-12V12C0,5.4,5.4,0,12,0z"/>
<path class="st4" d="M28.4,2.9h31c3.4,0,6.1,2.7,6.1,6.1v29c0,3.4-2.7,6.1-6.1,6.1h-31c-3.4,0-6.1-2.7-6.1-6.1v-29
	C22.3,5.7,25,2.9,28.4,2.9z"/>
<path class="st5" d="M61.9,33.1L56,29.7l3.8-1.7l-0.7-1.7l-5.1,2.2l-3.3-1.9l5.7-2.5l-5.7-2.5l3.3-1.9l5.1,2.2l0.7-1.7L56,18.6
	l5.9-3.4l-1-1.8L55,16.8l0.5-4.2l-1.8-0.2l-0.6,5.5l-3.3,1.9l0.7-6.2l-5.1,3.7v-3.8l4.5-3.3l-1.1-1.5l-3.4,2.5V4.4h-2v6.8L40,8.7
	l-1.1,1.5l4.5,3.3v3.8l-5.1-3.7l0.7,6.2l-3.3-1.9l-0.6-5.5l-1.8,0.2l0.5,4.2l-5.9-3.4l-1,1.8l5.9,3.4l-3.8,1.7l0.7,1.7l0,0l5.1-2.2
	l3.3,1.9l-5.7,2.5l1.9,0.8l3.8,1.7l-3.3,1.9l-5.1-2.2L28.8,28l3.8,1.7l-5.9,3.4l1,1.8l5.9-3.4l-0.5,4.2l1.8,0.2l0,0l0.6-5.5l3.3-1.9
	l-0.7,6.2l5.1-3.7v3.8L38.9,38l1.1,1.5l3.4-2.5v6.8h2V37l3.4,2.5l1.1-1.5l-4.5-3.3v-3.8l5.1,3.7l-0.6-6.2l3.3,1.9l0.6,5.5l1.8-0.2
	L55,31.4l5.9,3.4L61.9,33.1z M52,24.1l-3.2,1.4l-2.4-1.4l2.4-1.4L52,24.1z M48.2,17.4l-0.4,3.5l-2.4,1.4v-2.8L48.2,17.4z M40.5,17.4
	l2.8,2v2.8l-2.4-1.4L40.5,17.4z M36.7,24.1l3.2-1.4l2.4,1.4l-2.4,1.4L36.7,24.1z M40.5,30.8l0.4-3.5l2.4-1.4v2.8L40.5,30.8z
	 M48.2,30.8l-2.8-2.1v-2.8l2.4,1.4L48.2,30.8z"/>
</svg>
