<svg id="デザイン" xmlns="http://www.w3.org/2000/svg" width="383.126" height="290.74" viewBox="0 0 383.126 290.74"><title>logo01_bk</title><path d="M49.729,16.783V27.619H35.585V96.625H24.179V27.619H10.036V16.783Z" transform="translate(-10.036 -15.643)"/><path d="M55.545,37.771c0-6.046.457-11.863,5.932-17a19.918,19.918,0,0,1,14.029-5.132,19.92,19.92,0,0,1,14.029,5.132c5.475,5.133,5.931,10.95,5.931,17V75.638c0,6.045-.456,11.862-5.931,16.995a19.916,19.916,0,0,1-14.029,5.133,19.914,19.914,0,0,1-14.029-5.133C56,87.5,55.545,81.683,55.545,75.638ZM84.061,36.06c0-2.4-.229-4.791-2.4-6.958a9.456,9.456,0,0,0-12.318,0c-2.167,2.167-2.395,4.562-2.395,6.958V77.349c0,2.395.228,4.791,2.395,6.958a9.456,9.456,0,0,0,12.318,0c2.167-2.167,2.4-4.563,2.4-6.958Z" transform="translate(-10.036 -15.643)"/><path d="M108.7,16.783H120.1l15.74,44.028h.456l14.942-44.028h11.405V96.625h-11.4V46.667h-.571L138.7,82.71H132.65L120.674,46.667h-.57V96.625H108.7Z" transform="translate(-10.036 -15.643)"/><path d="M175.878,37.771c0-6.046.457-11.863,5.932-17a21.741,21.741,0,0,1,28.058,0c5.475,5.133,5.932,10.95,5.932,17V75.638c0,6.045-.457,11.862-5.932,16.995a21.738,21.738,0,0,1-28.058,0c-5.475-5.133-5.932-10.95-5.932-16.995Zm28.516-1.711c0-2.4-.229-4.791-2.4-6.958a9.456,9.456,0,0,0-12.318,0c-2.167,2.167-2.4,4.562-2.4,6.958V77.349c0,2.395.228,4.791,2.4,6.958a9.456,9.456,0,0,0,12.318,0c2.167-2.167,2.4-4.563,2.4-6.958Z" transform="translate(-10.036 -15.643)"/><path d="M240.438,16.783V51.115h15.4V16.783h11.406V96.625H255.835V61.381h-15.4V96.625H229.031V16.783Z" transform="translate(-10.036 -15.643)"/><path d="M292.334,16.783V96.625H280.928V16.783Z" transform="translate(-10.036 -15.643)"/><path d="M332.367,36.744c0-1.711-.114-5.019-1.939-7.3a7.21,7.21,0,0,0-6.045-2.623,7.62,7.62,0,0,0-5.589,2.167c-2.167,2.281-2.4,5.474-2.4,8.1,0,2.167.343,6.159,1.826,8.326,1.255,1.939,3.536,2.852,5.247,3.536l6.957,2.51c3.422,1.254,7.414,2.737,10.38,6.843,3.079,4.22,3.421,8.782,3.421,13.8V74.84c0,8.1-2.167,14.257-5.474,17.679-2.966,3.08-8.213,5.247-14.828,5.247-8.1,0-13.345-3.308-15.969-6.958-3.649-4.905-3.649-12.433-3.649-13.459V74.726h11.406v2.167c0,1.825.227,5.018,1.824,7.071a7.809,7.809,0,0,0,6.273,2.624c4.334,0,6.274-1.711,7.186-2.852,1.711-2.167,1.825-5.475,1.825-7.87V72.9c0-2.738-.342-6.16-1.825-8.213s-4.22-3.079-5.475-3.536L317.2,58.187c-4.106-1.483-8.212-3.536-10.493-8.9-1.6-3.65-1.711-7.643-1.711-11.635V35.375a20.244,20.244,0,0,1,5.931-14.828c3.764-3.65,8.555-4.9,13.8-4.9,11.406,0,19.048,7.414,19.048,20.645v2.623H332.367Z" transform="translate(-10.036 -15.643)"/><path d="M381.756,96.625l-3.764-17.109h-14.6l-3.764,17.109H348.223l17.451-79.842h10.037l17.451,79.842Zm-11.292-57.6-5.931,30.34h12.09Z" transform="translate(-10.036 -15.643)"/><path d="M14.248,138.09c0-6.147.464-12.061,6.03-17.279a20.247,20.247,0,0,1,14.264-5.219,20.247,20.247,0,0,1,14.264,5.219c5.567,5.218,6.03,11.132,6.03,17.279v38.5c0,6.146-.463,12.06-6.03,17.279a20.251,20.251,0,0,1-14.264,5.218,20.251,20.251,0,0,1-14.264-5.218c-5.566-5.219-6.03-11.133-6.03-17.279Zm28.992-1.739c0-2.436-.232-4.872-2.435-7.075a8.666,8.666,0,0,0-6.263-2.319,8.664,8.664,0,0,0-6.262,2.319c-2.2,2.2-2.435,4.639-2.435,7.075V178.33c0,2.436.232,4.871,2.435,7.074a8.66,8.66,0,0,0,6.262,2.32,8.662,8.662,0,0,0,6.263-2.32c2.2-2.2,2.435-4.638,2.435-7.074Z" transform="translate(-10.036 -15.643)"/><path d="M95.076,137.046c0-1.739-.116-5.1-1.972-7.422a7.33,7.33,0,0,0-6.146-2.667,7.748,7.748,0,0,0-5.682,2.2c-2.2,2.319-2.435,5.567-2.435,8.234,0,2.2.347,6.262,1.855,8.465,1.276,1.972,3.595,2.9,5.334,3.6l7.074,2.551c3.479,1.275,7.539,2.783,10.553,6.958,3.132,4.291,3.48,8.93,3.48,14.032v2.783c0,8.234-2.2,14.5-5.567,17.975-3.015,3.131-8.349,5.334-15.076,5.334-8.233,0-13.568-3.362-16.235-7.073-3.711-4.988-3.711-12.641-3.711-13.685v-2.667h11.6v2.2c0,1.856.232,5.1,1.855,7.191a7.941,7.941,0,0,0,6.378,2.667c4.407,0,6.379-1.74,7.307-2.9,1.739-2.2,1.855-5.566,1.855-8v-3.014c0-2.784-.348-6.263-1.855-8.35s-4.291-3.131-5.567-3.595l-8.466-3.015c-4.174-1.508-8.349-3.6-10.669-9.045-1.623-3.711-1.739-7.77-1.739-11.829v-2.32a20.581,20.581,0,0,1,6.03-15.075c3.827-3.711,8.7-4.987,14.032-4.987,11.6,0,19.367,7.538,19.367,20.99v2.668h-11.6Z" transform="translate(-10.036 -15.643)"/><path d="M145.29,197.929l-3.827-17.4H126.619l-3.827,17.4H111.2l17.743-81.177h10.206l17.742,81.177Zm-11.481-58.564-6.031,30.848h12.293Z" transform="translate(-10.036 -15.643)"/><path d="M31.216,219.054,38.2,273.447h.5l9.981-54.393h9.357l9.98,54.393h.749L75.5,219.054H88.729L75.005,306.383H63.777l-9.98-56.39h-.873l-9.981,56.39H31.715L17.992,219.054Z" transform="translate(-10.036 -15.643)"/><path d="M123.533,306.383l-4.117-18.713H103.447l-4.116,18.713H86.855l19.087-87.329h10.979l19.088,87.329Zm-12.35-63L104.7,276.566h13.224Z" transform="translate(-10.036 -15.643)"/></svg>