<svg xmlns="http://www.w3.org/2000/svg" width="44.816" height="27.517" viewBox="0 0 44.816 27.517"><defs><style>.cls-1{fill:#fff;}.cls-2{fill:#231f20;}.cls-3{fill:#d6e7f7;}</style></defs><title>アセット 3</title><g id="レイヤー_2" data-name="レイヤー 2"><g id="Layer_1" data-name="Layer 1"><path class="cls-1" d="M12.8,12.847A5.959,5.959,0,1,1,6.844,6.888,5.959,5.959,0,0,1,12.8,12.847Z"/><path class="cls-2" d="M6.844,19.552a6.705,6.705,0,1,1,6.7-6.7A6.713,6.713,0,0,1,6.844,19.552Zm0-11.919a5.214,5.214,0,1,0,5.214,5.214A5.22,5.22,0,0,0,6.844,7.633Z"/><path class="cls-1" d="M12.943,26.772H.745v-1.8a6.1,6.1,0,0,1,6.1-6.1h0a6.1,6.1,0,0,1,6.1,6.1Z"/><path class="cls-2" d="M12.943,27.517H.745A.746.746,0,0,1,0,26.772v-1.8a6.844,6.844,0,0,1,13.688,0v1.8A.746.746,0,0,1,12.943,27.517ZM1.49,26.026H12.2v-1.05a5.354,5.354,0,0,0-10.708,0Z"/><circle class="cls-3" cx="18.375" cy="8.545" r="7.8" transform="translate(6.058 24.638) rotate(-77.509)"/><path class="cls-2" d="M18.375,17.091a8.546,8.546,0,1,1,8.546-8.545A8.555,8.555,0,0,1,18.375,17.091Zm0-15.6A7.056,7.056,0,1,0,25.43,8.546,7.063,7.063,0,0,0,18.375,1.49Z"/><path class="cls-3" d="M26.358,26.772H10.393V24.421a7.983,7.983,0,0,1,7.982-7.983h0a7.983,7.983,0,0,1,7.983,7.983Z"/><path class="cls-2" d="M26.358,27.517H10.393a.746.746,0,0,1-.746-.745V24.421a8.728,8.728,0,0,1,17.456,0v2.351A.745.745,0,0,1,26.358,27.517Zm-15.22-1.491H25.613V24.421a7.238,7.238,0,1,0-14.475,0Z"/><path class="cls-1" d="M40.086,2.3v0Z"/><path class="cls-2" d="M40.086,9.649A.745.745,0,0,1,39.34,8.9V2.3a.746.746,0,0,1,1.491,0V8.9A.745.745,0,0,1,40.086,9.649Z"/><path class="cls-1" d="M43.388,5.6h0Z"/><path class="cls-2" d="M43.388,6.347h-6.6a.745.745,0,1,1,0-1.49h6.6a.745.745,0,0,1,0,1.49Z"/><rect class="cls-1" x="33.423" y="8.367" width="4.533" height="13.318" transform="translate(-0.172 29.637) rotate(-45)"/><path class="cls-2" d="M38.8,22.083a.743.743,0,0,1-.527-.219l-9.418-9.417a.746.746,0,0,1,0-1.054l3.2-3.2a.745.745,0,0,1,1.054,0l9.418,9.417a.745.745,0,0,1,0,1.054l-3.2,3.205A.747.747,0,0,1,38.8,22.083ZM30.432,11.92,38.8,20.284l2.151-2.152L32.583,9.769Z"/><polygon class="cls-1" points="38.796 21.337 44.07 23.407 42.001 18.132 38.796 21.337"/><path class="cls-2" d="M44.07,24.152A.762.762,0,0,1,43.8,24.1l-5.275-2.07a.745.745,0,0,1-.254-1.221l3.2-3.2a.745.745,0,0,1,1.22.255l2.07,5.275a.745.745,0,0,1-.694,1.017Zm-3.943-3.093,2.626,1.031-1.03-2.626Z"/><rect class="cls-1" x="30.187" y="9.707" width="4.533" height="4.167" transform="translate(1.168 26.402) rotate(-45)"/><path class="cls-2" d="M32.324,15.611a.745.745,0,0,1-.527-.218l-2.946-2.946a.746.746,0,0,1,0-1.054l3.2-3.2a.745.745,0,0,1,1.054,0l2.946,2.946a.744.744,0,0,1,0,1.054l-3.2,3.205A.744.744,0,0,1,32.324,15.611ZM30.432,11.92l1.892,1.892,2.151-2.151L32.583,9.769Z"/><path class="cls-2" d="M44.07,27.454H33.706a.745.745,0,1,1,0-1.49H44.07a.745.745,0,1,1,0,1.49Z"/></g></g></svg>
