<svg xmlns="http://www.w3.org/2000/svg" viewBox="0 0 43 42"><defs><style>.cls-1{fill:none;stroke:#505050;stroke-linejoin:round;stroke-width:2px;}</style></defs><title>アセット 1</title><g id="レイヤー_2" data-name="レイヤー 2"><g id="icons"><path class="cls-1" d="M38.41,10.44a2,2,0,0,0,0-2.82l-3-3a2,2,0,0,0-2.82,0L5,31,1,41l10-4Z"/><line class="cls-1" x1="8" y1="34" x2="33" y2="10"/><line class="cls-1" x1="36" y1="13" x2="30" y2="7"/><line class="cls-1" x1="11" y1="37" x2="5" y2="31"/><line class="cls-1" x1="17" x2="17" y2="2"/><line class="cls-1" x1="17" y1="4" x2="17" y2="6"/><line class="cls-1" x1="16" y1="3" x2="14" y2="3"/><line class="cls-1" x1="20" y1="3" x2="18" y2="3"/><line class="cls-1" x1="38" y1="20" x2="38" y2="23"/><line class="cls-1" x1="38" y1="27" x2="38" y2="30"/><line class="cls-1" x1="36" y1="25" x2="33" y2="25"/><line class="cls-1" x1="43" y1="25" x2="40" y2="25"/><line class="cls-1" x1="32" y1="33" x2="30" y2="35"/><line class="cls-1" x1="27" y1="38" x2="24.93" y2="40.07"/><line class="cls-1" x1="27" y1="35" x2="24.93" y2="33"/><line class="cls-1" x1="32" y1="40" x2="30" y2="38"/><line class="cls-1" x1="12.07" y1="9" x2="10.07" y2="11"/><line class="cls-1" x1="7.07" y1="14" x2="5" y2="16.07"/><line class="cls-1" x1="7.07" y1="11" x2="5" y2="9"/><line class="cls-1" x1="12.07" y1="16" x2="10.07" y2="14"/></g></g></svg>