<svg xmlns="http://www.w3.org/2000/svg" width="54.805" height="41.189" viewBox="0 0 54.805 41.189"><defs><style>.cls-1{fill:#231f20;}.cls-2{fill:#fff;}</style></defs><title>アセット 4</title><g id="レイヤー_2" data-name="レイヤー 2"><g id="Layer_1" data-name="Layer 1"><path class="cls-1" d="M49.589,30.005H5.216a.746.746,0,0,1-.745-.746V.745A.746.746,0,0,1,5.216,0H49.589a.746.746,0,0,1,.745.745V29.259A.746.746,0,0,1,49.589,30.005ZM5.961,28.514H48.844V1.49H5.961Z"/><rect class="cls-2" x="9.288" y="4.353" width="36.229" height="21.299"/><path class="cls-1" d="M45.517,26.4H9.288a.744.744,0,0,1-.745-.745V4.353a.744.744,0,0,1,.745-.745H45.517a.744.744,0,0,1,.745.745v21.3A.744.744,0,0,1,45.517,26.4Zm-35.484-1.49H44.772V5.1H10.033Z"/><path class="cls-1" d="M54.06,37.305H.745A.745.745,0,0,1,.11,36.171l4.471-7.3a.745.745,0,0,1,.635-.356H49.589a.745.745,0,0,1,.635.356l4.471,7.3a.745.745,0,0,1-.635,1.134ZM2.075,35.815H52.73l-3.559-5.81H5.634Z"/><path class="cls-1" d="M54.06,41.189H.745A.746.746,0,0,1,0,40.444V36.56a.745.745,0,0,1,.745-.745H54.06a.745.745,0,0,1,.745.745v3.884A.746.746,0,0,1,54.06,41.189ZM1.49,39.7H53.315V37.305H1.49Z"/><path class="cls-1" d="M40.285,9.566H14.412c-.708,0-1.281-.334-1.281-.746s.573-.745,1.281-.745H40.285c.707,0,1.28.334,1.28.745S40.992,9.566,40.285,9.566Z"/><path class="cls-1" d="M32.406,13.219H14.04a.839.839,0,0,1-.909-.745.839.839,0,0,1,.909-.745H32.406a.839.839,0,0,1,.909.745A.839.839,0,0,1,32.406,13.219Z"/><path class="cls-1" d="M40.285,16.873H14.412c-.708,0-1.281-.334-1.281-.746s.573-.745,1.281-.745H40.285c.707,0,1.28.334,1.28.745S40.992,16.873,40.285,16.873Z"/><path class="cls-1" d="M32.406,20.526H14.04a.76.76,0,1,1,0-1.49H32.406a.76.76,0,1,1,0,1.49Z"/></g></g></svg>