<svg xmlns="http://www.w3.org/2000/svg" width="51.302" height="42.971" viewBox="0 0 51.302 42.971"><defs><style>.cls-1{fill:#fff;}.cls-2{fill:#231f20;}.cls-3{fill:#d6e7f7;}</style></defs><title>アセット 2</title><g id="レイヤー_2" data-name="レイヤー 2"><g id="Layer_1" data-name="Layer 1"><rect class="cls-1" x="15.408" y="29.189" width="20.486" height="9.631"/><path class="cls-2" d="M35.894,39.565H15.408a.745.745,0,0,1-.745-.745V29.189a.744.744,0,0,1,.745-.745H35.894a.744.744,0,0,1,.745.745V38.82A.745.745,0,0,1,35.894,39.565ZM16.153,38.074h19v-8.14h-19Z"/><rect class="cls-1" x="0.745" y="0.745" width="49.811" height="31.639"/><path class="cls-2" d="M50.557,33.13H.745A.746.746,0,0,1,0,32.385V.745A.746.746,0,0,1,.745,0H50.557A.746.746,0,0,1,51.3.745v31.64A.746.746,0,0,1,50.557,33.13ZM1.49,31.639H49.811V1.49H1.49Z"/><rect class="cls-3" x="0.745" y="3.941" width="49.811" height="23.481"/><path class="cls-2" d="M50.557,28.167H.745A.745.745,0,0,1,0,27.422V3.941A.745.745,0,0,1,.745,3.2H50.557a.745.745,0,0,1,.745.745V27.422A.745.745,0,0,1,50.557,28.167ZM1.49,26.677H49.811V4.686H1.49Z"/><rect class="cls-1" x="11.664" y="38.82" width="27.974" height="3.407"/><path class="cls-2" d="M39.638,42.971H11.664a.744.744,0,0,1-.745-.745V38.82a.745.745,0,0,1,.745-.746H39.638a.745.745,0,0,1,.745.746v3.406A.744.744,0,0,1,39.638,42.971Zm-27.229-1.49H38.893V39.565H12.409Z"/><rect class="cls-1" x="23.243" y="9.022" width="4.533" height="13.318" transform="translate(-3.617 22.631) rotate(-45)"/><path class="cls-2" d="M28.615,22.738a.743.743,0,0,1-.526-.219L18.671,13.1a.746.746,0,0,1,0-1.054l3.205-3.2a.745.745,0,0,1,1.054,0l9.417,9.417a.745.745,0,0,1,0,1.054l-3.205,3.2A.743.743,0,0,1,28.615,22.738ZM20.252,12.575l8.363,8.364,2.152-2.152L22.4,10.424Z"/><polygon class="cls-1" points="28.615 21.992 33.89 24.062 31.821 18.787 28.615 21.992"/><path class="cls-2" d="M33.89,24.807a.762.762,0,0,1-.272-.051l-5.275-2.07a.745.745,0,0,1-.254-1.221l3.205-3.2a.745.745,0,0,1,1.22.255l2.07,5.275a.745.745,0,0,1-.694,1.017Zm-3.943-3.093,2.626,1.031-1.03-2.626Z"/><rect class="cls-1" x="20.007" y="10.362" width="4.533" height="4.167" transform="translate(-2.276 19.395) rotate(-45)"/><path class="cls-2" d="M22.144,16.266a.745.745,0,0,1-.527-.218L18.671,13.1a.746.746,0,0,1,0-1.054l3.205-3.2a.745.745,0,0,1,1.054,0l2.946,2.946a.746.746,0,0,1,0,1.054l-3.205,3.2A.744.744,0,0,1,22.144,16.266Zm-1.892-3.691,1.892,1.892L24.3,12.316,22.4,10.424Z"/></g></g></svg>
