<svg xmlns="http://www.w3.org/2000/svg" viewBox="0 0 43.35 33.56"><defs><style>.cls-1{fill:none;stroke:#505050;stroke-linejoin:round;stroke-width:2px;}.cls-2{fill:#4b4b4b;}</style></defs><title>アセット 2</title><g id="レイヤー_2" data-name="レイヤー 2"><g id="icons"><line class="cls-1" x1="11.79" x2="11.79" y2="1.85"/><line class="cls-1" x1="11.79" y1="3.69" x2="11.79" y2="5.54"/><line class="cls-1" x1="10.87" y1="2.77" x2="9.02" y2="2.77"/><line class="cls-1" x1="14.56" y1="2.77" x2="12.72" y2="2.77"/><line class="cls-1" x1="34.61" y1="1" x2="34.61" y2="2.99"/><line class="cls-1" x1="34.61" y1="5.64" x2="34.61" y2="7.62"/><line class="cls-1" x1="33.29" y1="4.31" x2="31.3" y2="4.31"/><line class="cls-1" x1="37.92" y1="4.31" x2="35.94" y2="4.31"/><line class="cls-1" x1="42.64" y1="10.61" x2="41.32" y2="11.93"/><line class="cls-1" x1="39.33" y1="13.92" x2="37.96" y2="15.29"/><line class="cls-1" x1="39.33" y1="11.93" x2="37.96" y2="10.61"/><line class="cls-1" x1="42.64" y1="15.24" x2="41.32" y2="13.92"/><line class="cls-1" x1="7.24" y1="8.31" x2="5.39" y2="10.16"/><line class="cls-1" x1="2.62" y1="12.93" x2="0.71" y2="14.84"/><line class="cls-1" x1="2.62" y1="10.16" x2="0.71" y2="8.31"/><line class="cls-1" x1="7.24" y1="14.78" x2="5.39" y2="12.93"/><path class="cls-2" d="M34.67,18.33H21.13a1.39,1.39,0,0,1,.62-2.63h8.46a2.05,2.05,0,0,0,0-4.1H20.55A3.61,3.61,0,0,1,16.94,8h-.63a4.24,4.24,0,0,0,4.24,4.24h9.66a1.41,1.41,0,0,1,0,2.82H21.75a2,2,0,0,0-2,2,2,2,0,0,0,.43,1.24H5.41A2.37,2.37,0,0,0,3,20.7V31.2a2.37,2.37,0,0,0,2.37,2.36H34.67A2.37,2.37,0,0,0,37,31.2V20.7A2.37,2.37,0,0,0,34.67,18.33ZM31,21.49a.36.36,0,0,1,.35-.36h1.07a.36.36,0,0,1,.36.36v1.07a.36.36,0,0,1-.36.35H31.3a.35.35,0,0,1-.35-.35Zm-1.53,4.32H28.36a.36.36,0,0,1-.36-.35V24.39a.36.36,0,0,1,.36-.36h1.06a.36.36,0,0,1,.36.36v1.07A.36.36,0,0,1,29.42,25.81Zm.36,1.48v1.07a.36.36,0,0,1-.36.35H28.36a.36.36,0,0,1-.36-.35V27.29a.36.36,0,0,1,.36-.36h1.06A.36.36,0,0,1,29.78,27.29Zm-.36-4.38H28.36a.36.36,0,0,1-.36-.35V21.49a.36.36,0,0,1,.36-.36h1.06a.36.36,0,0,1,.36.36v1.07A.36.36,0,0,1,29.42,22.91Zm-3,2.9H25.41a.36.36,0,0,1-.36-.35V24.39a.36.36,0,0,1,.36-.36h1.06a.36.36,0,0,1,.36.36v1.07A.36.36,0,0,1,26.47,25.81Zm.36,1.48v1.07a.36.36,0,0,1-.36.35H25.41a.36.36,0,0,1-.36-.35V27.29a.36.36,0,0,1,.36-.36h1.06A.36.36,0,0,1,26.83,27.29Zm-.36-4.38H25.41a.36.36,0,0,1-.36-.35V21.49a.36.36,0,0,1,.36-.36h1.06a.36.36,0,0,1,.36.36v1.07A.36.36,0,0,1,26.47,22.91Zm-2.95,2.9H22.46a.36.36,0,0,1-.36-.35V24.39a.36.36,0,0,1,.36-.36h1.06a.36.36,0,0,1,.36.36v1.07A.36.36,0,0,1,23.52,25.81Zm.36,1.48v1.07a.36.36,0,0,1-.36.35H22.46a.36.36,0,0,1-.36-.35V27.29a.36.36,0,0,1,.36-.36h1.06A.36.36,0,0,1,23.88,27.29Zm-.36-4.38H22.46a.36.36,0,0,1-.36-.35V21.49a.36.36,0,0,1,.36-.36h1.06a.36.36,0,0,1,.36.36v1.07A.36.36,0,0,1,23.52,22.91Zm-4.37-1.42a.36.36,0,0,1,.36-.36h1.06a.36.36,0,0,1,.36.36v1.07a.36.36,0,0,1-.36.35H19.51a.36.36,0,0,1-.36-.35Zm0,2.9a.36.36,0,0,1,.36-.36h1.06a.36.36,0,0,1,.36.36v1.07a.36.36,0,0,1-.36.35H19.51a.36.36,0,0,1-.36-.35Zm0,2.9a.36.36,0,0,1,.36-.36h1.06a.36.36,0,0,1,.36.36v1.07a.36.36,0,0,1-.36.35H19.51a.36.36,0,0,1-.36-.35Zm-2.95-5.8a.36.36,0,0,1,.36-.36h1.07a.36.36,0,0,1,.35.36v1.07a.35.35,0,0,1-.35.35H16.56a.36.36,0,0,1-.36-.35Zm0,2.9a.36.36,0,0,1,.36-.36h1.07a.36.36,0,0,1,.35.36v1.07a.35.35,0,0,1-.35.35H16.56a.36.36,0,0,1-.36-.35Zm0,2.9a.36.36,0,0,1,.36-.36h1.07a.36.36,0,0,1,.35.36v1.07a.35.35,0,0,1-.35.35H16.56a.36.36,0,0,1-.36-.35Zm-2.95-5.8a.36.36,0,0,1,.36-.36h1.07a.36.36,0,0,1,.35.36v1.07a.35.35,0,0,1-.35.35H13.61a.36.36,0,0,1-.36-.35Zm0,2.9a.36.36,0,0,1,.36-.36h1.07a.36.36,0,0,1,.35.36v1.07a.35.35,0,0,1-.35.35H13.61a.36.36,0,0,1-.36-.35Zm0,2.9a.36.36,0,0,1,.36-.36h1.07a.36.36,0,0,1,.35.36v1.07a.35.35,0,0,1-.35.35H13.61a.36.36,0,0,1-.36-.35Zm-7.07,4a.36.36,0,0,1-.35.36H4.76a.36.36,0,0,1-.36-.36V30.19a.36.36,0,0,1,.36-.36H5.83a.36.36,0,0,1,.35.36Zm0-2.89a.35.35,0,0,1-.35.35H4.76a.36.36,0,0,1-.36-.35V27.29a.36.36,0,0,1,.36-.36H5.83a.36.36,0,0,1,.35.36Zm0-2.9a.35.35,0,0,1-.35.35H4.76a.36.36,0,0,1-.36-.35V24.39A.36.36,0,0,1,4.76,24H5.83a.36.36,0,0,1,.35.36Zm0-2.9a.35.35,0,0,1-.35.35H4.76a.36.36,0,0,1-.36-.35V21.49a.36.36,0,0,1,.36-.36H5.83a.36.36,0,0,1,.35.36Zm3,8.69a.36.36,0,0,1-.35.36H7.71a.36.36,0,0,1-.36-.36V30.19a.36.36,0,0,1,.36-.36H8.78a.36.36,0,0,1,.35.36Zm0-2.89a.35.35,0,0,1-.35.35H7.71a.36.36,0,0,1-.36-.35V27.29a.36.36,0,0,1,.36-.36H8.78a.36.36,0,0,1,.35.36Zm0-2.9a.35.35,0,0,1-.35.35H7.71a.36.36,0,0,1-.36-.35V24.39A.36.36,0,0,1,7.71,24H8.78a.36.36,0,0,1,.35.36Zm0-2.9a.35.35,0,0,1-.35.35H7.71a.36.36,0,0,1-.36-.35V21.49a.36.36,0,0,1,.36-.36H8.78a.36.36,0,0,1,.35.36Zm2.95,8.69a.36.36,0,0,1-.35.36H10.66a.36.36,0,0,1-.36-.36V30.19a.36.36,0,0,1,.36-.36h1.07a.36.36,0,0,1,.35.36Zm0-2.89a.35.35,0,0,1-.35.35H10.66a.36.36,0,0,1-.36-.35V27.29a.36.36,0,0,1,.36-.36h1.07a.36.36,0,0,1,.35.36Zm0-2.9a.35.35,0,0,1-.35.35H10.66a.36.36,0,0,1-.36-.35V24.39a.36.36,0,0,1,.36-.36h1.07a.36.36,0,0,1,.35.36Zm0-2.9a.35.35,0,0,1-.35.35H10.66a.36.36,0,0,1-.36-.35V21.49a.36.36,0,0,1,.36-.36h1.07a.36.36,0,0,1,.35.36Zm18,8.31a.74.74,0,0,1-.74.74H13.71a.74.74,0,0,1-.74-.74v-.3a.74.74,0,0,1,.74-.74H29.33a.74.74,0,0,1,.74.74Zm2.66.38a.36.36,0,0,1-.36.36H31.3a.36.36,0,0,1-.35-.36V30.19a.36.36,0,0,1,.35-.36h1.07a.36.36,0,0,1,.36.36Zm3,0a.36.36,0,0,1-.36.36H34.25a.36.36,0,0,1-.35-.36V30.19a.36.36,0,0,1,.35-.36h1.07a.36.36,0,0,1,.36.36Zm.3-3.33a.79.79,0,0,1-.79.79H31.45a.79.79,0,0,1-.79-.79V25.87a.79.79,0,0,1,.79-.79h1.19a1,1,0,0,0,1-1V21.93a.79.79,0,0,1,.79-.8h.79a.8.8,0,0,1,.79.8Z"/></g></g></svg>