<svg xmlns="http://www.w3.org/2000/svg" viewBox="0 0 46.35 65.44"><defs><style>.cls-1{fill:none;stroke:#505050;stroke-linejoin:round;stroke-width:2px;}.cls-2{fill:#43494d;}</style></defs><title>アセット 4</title><g id="レイヤー_2" data-name="レイヤー 2"><g id="icons"><line class="cls-1" x1="11.79" y1="11.67" x2="11.79" y2="13.52"/><line class="cls-1" x1="11.79" y1="15.37" x2="11.79" y2="17.21"/><line class="cls-1" x1="10.87" y1="14.44" x2="9.02" y2="14.44"/><line class="cls-1" x1="14.56" y1="14.44" x2="12.72" y2="14.44"/><line class="cls-1" x1="37.61" y1="25.67" x2="37.61" y2="27.66"/><line class="cls-1" x1="37.61" y1="30.31" x2="37.61" y2="32.29"/><line class="cls-1" x1="36.29" y1="28.98" x2="34.3" y2="28.98"/><line class="cls-1" x1="40.92" y1="28.98" x2="38.94" y2="28.98"/><line class="cls-1" x1="45.64" y1="35.28" x2="44.32" y2="36.6"/><line class="cls-1" x1="42.33" y1="38.59" x2="40.96" y2="39.96"/><line class="cls-1" x1="42.33" y1="36.6" x2="40.96" y2="35.28"/><line class="cls-1" x1="45.64" y1="39.92" x2="44.32" y2="38.59"/><line class="cls-1" x1="7.24" y1="19.98" x2="5.39" y2="21.83"/><line class="cls-1" x1="2.62" y1="24.6" x2="0.71" y2="26.52"/><line class="cls-1" x1="2.62" y1="21.83" x2="0.71" y2="19.98"/><line class="cls-1" x1="7.24" y1="26.45" x2="5.39" y2="24.6"/><path class="cls-2" d="M26.32,25.54l-.07,0,.81-2.09A8.93,8.93,0,0,0,22,11.86l-4.16-1.63A7.51,7.51,0,0,1,13.57.52L12.24,0a8.94,8.94,0,0,0,5.07,11.57l4.16,1.62a7.5,7.5,0,0,1,4.25,9.71L24.91,25l-.07,0A11.74,11.74,0,0,0,9.65,31.61L2.91,48.87A11.75,11.75,0,0,0,9.57,64.06l1.49.58A11.74,11.74,0,0,0,26.24,58L33,40.72A11.74,11.74,0,0,0,26.32,25.54Zm-4.5,9.35a1.56,1.56,0,1,1-2,.88A1.55,1.55,0,0,1,21.82,34.89ZM24.9,57.46A10.3,10.3,0,0,1,11.58,63.3l-1.49-.58A10.31,10.31,0,0,1,4.25,49.39L11,32.14A10.28,10.28,0,0,1,24.31,26.3l.08,0-2.75,7a3,3,0,1,0,1.33.52l2.75-7,.08,0A10.3,10.3,0,0,1,31.64,40.2Z"/></g></g></svg>